<svg width="401" height="301" viewBox="0 0 401 301" fill="none" xmlns="http://www.w3.org/2000/svg">
<path d="M141.854 218.125C138.094 222.263 132.681 224.847 126.666 224.847C115.338 224.847 106.09 215.616 106.09 204.254C106.09 197.406 109.448 191.361 114.586 187.598C115.212 187.147 115.864 186.72 116.541 186.319C118.621 185.14 120.902 184.312 123.333 183.911L121.453 176.01C119.423 176.386 117.418 176.988 115.488 177.791C114.661 178.142 113.859 178.518 113.082 178.945C112.932 179.02 112.756 179.12 112.606 179.195C110.325 180.475 108.245 182.055 106.365 183.936C103.759 186.62 101.704 189.68 100.25 193.117C98.7463 196.653 97.9944 200.416 97.9944 204.279C97.9944 208.142 98.7463 211.904 100.25 215.441C101.704 218.852 103.759 221.937 106.39 224.571C109.022 227.205 112.08 229.262 115.513 230.717C119.047 232.222 122.806 232.974 126.666 232.974C130.526 232.974 134.285 232.222 137.819 230.717C141.227 229.262 144.31 227.205 146.941 224.571C147.342 224.17 147.743 223.743 148.119 223.317L141.854 218.125Z" fill="#CDE7F9"/>
<path d="M146.039 183.133L140.952 189.505C137.242 185.918 132.205 183.71 126.666 183.71C125.538 183.71 124.435 183.811 123.358 183.986L121.478 176.085C123.182 175.784 124.912 175.608 126.666 175.608C130.526 175.608 134.285 176.361 137.819 177.866C140.851 179.12 143.608 180.901 146.039 183.133Z" fill="#13E0CF"/>
<path d="M154.861 199.111L146.841 200.315C146.014 196.101 143.909 192.364 140.952 189.479L146.039 183.108C146.34 183.384 146.641 183.685 146.941 183.986C149.573 186.62 151.628 189.68 153.082 193.117C153.909 195.048 154.485 197.055 154.861 199.111Z" fill="#FDD047"/>
<path d="M155.337 204.279C155.337 208.142 154.586 211.904 153.082 215.441C151.854 218.325 150.2 220.959 148.119 223.292L141.854 218.125C145.187 214.462 147.217 209.596 147.217 204.254C147.217 202.899 147.092 201.57 146.841 200.29L154.861 199.086C155.187 200.792 155.337 202.523 155.337 204.279Z" fill="#B655FF"/>
<path d="M206.264 217.723H151.503V216.218H204.761V203.175H206.264V217.723Z" fill="#30A9FA"/>
<path d="M47.6187 172.824H46.115V80.7683H59.348V82.2733H47.6187V172.824Z" fill="#30A9FA"/>
<path d="M97.9944 205.182H46.115V186.871H47.6187V203.677H97.9944V205.182Z" fill="#30A9FA"/>
<path d="M46.9923 177.59C48.5841 177.59 49.8745 176.298 49.8745 174.705C49.8745 173.112 48.5841 171.821 46.9923 171.821C45.4005 171.821 44.1101 173.112 44.1101 174.705C44.1101 176.298 45.4005 177.59 46.9923 177.59Z" fill="#FDD047"/>
<path d="M46.9923 187.874C48.5841 187.874 49.8745 186.583 49.8745 184.99C49.8745 183.396 48.5841 182.105 46.9923 182.105C45.4005 182.105 44.1101 183.396 44.1101 184.99C44.1101 186.583 45.4005 187.874 46.9923 187.874Z" fill="#13E0CF"/>
<path d="M251.502 99.5306H249.999V113.627H251.502V99.5306Z" fill="#30A9FA"/>
<path d="M251.628 136.453H188.219V134.948H250.124V127.172H251.628V136.453Z" fill="#30A9FA"/>
<path d="M250.75 117.892C252.342 117.892 253.633 116.6 253.633 115.007C253.633 113.414 252.342 112.122 250.75 112.122C249.159 112.122 247.868 113.414 247.868 115.007C247.868 116.6 249.159 117.892 250.75 117.892Z" fill="#FDD047"/>
<path d="M250.75 128.176C252.342 128.176 253.633 126.884 253.633 125.291C253.633 123.698 252.342 122.407 250.75 122.407C249.159 122.407 247.868 123.698 247.868 125.291C247.868 126.884 249.159 128.176 250.75 128.176Z" fill="#13E0CF"/>
<path d="M211.227 30.2756V94.3635C211.227 97.3234 213.608 99.7063 216.565 99.7063H280.124C283.081 99.7063 285.462 97.3234 285.462 94.3635V30.2756C285.462 27.3158 283.081 24.9329 280.124 24.9329H216.565C213.633 24.9579 211.227 27.3409 211.227 30.2756Z" fill="#CDE7F9"/>
<path d="M278.344 58.068H218.094V92.9338H278.344V58.068Z" fill="white"/>
<path d="M278.344 31.9312H218.094V53.9543H278.344V31.9312Z" fill="white"/>
<path d="M231.803 90.6261C235.374 90.6261 238.269 87.7287 238.269 84.1546C238.269 80.5805 235.374 77.6831 231.803 77.6831C228.232 77.6831 225.337 80.5805 225.337 84.1546C225.337 87.7287 228.232 90.6261 231.803 90.6261Z" fill="#0879F9"/>
<path d="M230.024 87.9923L226.991 85.1077C226.741 84.882 226.741 84.4807 226.966 84.2549C227.192 84.0041 227.593 84.0041 227.818 84.2298L229.974 86.2867L235.362 80.7683C235.588 80.5175 235.989 80.5175 236.214 80.7683C236.465 80.9941 236.465 81.3954 236.214 81.6212L230.024 87.9923Z" fill="white"/>
<path d="M259.973 80.4924H240.475V81.8971H259.973V80.4924Z" fill="#CDE7F9"/>
<path d="M271.527 83.6028H240.475V85.0075H271.527V83.6028Z" fill="#CDE7F9"/>
<path d="M271.527 86.7382H240.475V88.1428H271.527V86.7382Z" fill="#CDE7F9"/>
<path d="M231.803 74.3471C235.374 74.3471 238.269 71.4497 238.269 67.8756C238.269 64.3014 235.374 61.4041 231.803 61.4041C228.232 61.4041 225.337 64.3014 225.337 67.8756C225.337 71.4497 228.232 74.3471 231.803 74.3471Z" fill="#0879F9"/>
<path d="M230.024 71.7133L226.991 68.8287C226.741 68.6029 226.741 68.2016 226.966 67.9759C227.192 67.725 227.593 67.725 227.818 67.9508L229.974 70.0076L235.362 64.4893C235.588 64.2384 235.989 64.2384 236.214 64.4893C236.465 64.715 236.465 65.1164 236.214 65.3421L230.024 71.7133Z" fill="white"/>
<path d="M259.973 64.1882H240.475V65.5929H259.973V64.1882Z" fill="#CDE7F9"/>
<path d="M271.527 67.3237H240.475V68.7284H271.527V67.3237Z" fill="#CDE7F9"/>
<path d="M271.527 70.4341H240.475V71.8388H271.527V70.4341Z" fill="#CDE7F9"/>
<path d="M271.427 39.6317H225.312V47.1567H271.427V39.6317Z" fill="#CDE7F9"/>
<path d="M260.65 39.6317H225.312V47.1567H260.65V39.6317Z" fill="#0879F9"/>
<path d="M64.611 23.0265H182.906C185.813 23.0265 188.169 25.3843 188.169 28.294V142.423C188.169 145.333 185.813 147.691 182.906 147.691H64.611C61.7038 147.691 59.3479 145.333 59.3479 142.423V28.294C59.3479 25.3843 61.7038 23.0265 64.611 23.0265Z" fill="#B9D9EA"/>
<path d="M181.026 29.9244H66.4656V140.793H181.026V29.9244Z" fill="#CDE7F9"/>
<path d="M91.2776 71.5878H155.187C162.756 71.5878 168.871 77.7332 168.871 85.2833C168.871 92.8585 162.731 98.9788 155.187 98.9788H91.2776C83.7088 98.9788 77.5935 92.8334 77.5935 85.2833C77.5935 77.7082 83.7088 71.5878 91.2776 71.5878ZM91.2776 36.12H155.187C162.756 36.12 168.871 42.2654 168.871 49.8155C168.871 57.3907 162.731 63.511 155.187 63.511H91.2776C83.7088 63.511 77.5935 57.3656 77.5935 49.8155C77.5935 42.2654 83.7088 36.12 91.2776 36.12Z" fill="white"/>
<path d="M102.556 50.242C102.556 54.7068 99.9742 58.5696 96.2149 60.4258C94.7111 61.1532 93.0319 61.5796 91.2274 61.5796C89.849 61.5796 88.5207 61.3288 87.2926 60.8773C82.9819 59.272 79.8992 55.1332 79.8992 50.242C79.8992 43.9962 84.9618 38.9043 91.2274 38.9043C97.493 38.9043 102.556 43.9711 102.556 50.242ZM102.556 85.6847C102.556 88.9205 101.202 91.8301 99.0469 93.887C97.9943 94.8903 96.7412 95.718 95.3377 96.2448C94.0595 96.7465 92.681 97.0224 91.2274 97.0224C89.7989 97.0224 88.4455 96.7715 87.1924 96.295C86.9417 96.1946 86.6911 96.0943 86.4655 95.994C85.6635 95.6177 84.9117 95.1662 84.2099 94.6144C81.5784 92.5325 79.8992 89.3218 79.8992 85.7098C79.8992 79.439 84.9618 74.3721 91.2274 74.3721C97.493 74.3721 102.556 79.439 102.556 85.6847Z" fill="#CDE7F9"/>
<path d="M101.303 80.5677C101.152 78.8871 99.4229 77.658 97.468 77.8336C96.7412 77.9088 96.0896 78.1346 95.5633 78.5108C95.2876 78.7115 95.037 78.9373 94.8365 79.1881C94.3854 79.765 94.1347 80.4674 94.2099 81.1948C94.26 81.7466 94.4856 82.2734 94.8365 82.6998L93.8841 83.0008L91.3528 83.8034L89.4982 84.4054L85.9142 85.5342L85.2877 85.7348L84.5107 85.9857C84.5107 85.9857 86.1398 88.0174 85.2877 92.106C85.1624 92.7331 84.9619 93.4354 84.6862 94.1628C85.3879 94.7147 86.1398 95.1662 86.9418 95.5424C87.1924 95.6428 87.418 95.7682 87.6686 95.8434C88.9217 96.32 90.2751 96.5708 91.7037 96.5708C93.1573 96.5708 94.5357 96.2949 95.8139 95.7933C97.1924 95.2665 98.4706 94.4388 99.5232 93.4354C99.4731 93.3853 99.4229 93.3602 99.3979 93.31C97.0921 90.9271 98.5959 88.4689 98.7212 86.8636C98.8214 85.5091 98.6711 84.5308 98.3954 83.8787C100.125 83.6278 101.453 82.173 101.303 80.5677Z" fill="#46105B"/>
<path d="M95.7638 95.8434C94.4856 96.3451 93.1072 96.621 91.6535 96.621C90.225 96.621 88.8716 96.3702 87.6185 95.8936C87.3679 95.7932 87.1172 95.6929 86.8917 95.5926L86.8666 94.9655L86.8165 93.2347L86.7413 89.8485L86.6912 88.1177L87.819 88.0174L93.859 87.4154L94.235 89.1462V89.1712L95.7638 95.8434Z" fill="#FFB1DF"/>
<path d="M94.26 89.1211C93.9592 92.3318 90.8765 94.9655 87.6184 95.8685C87.3678 95.7682 87.1171 95.6678 86.8916 95.5675L86.8665 94.9404L86.8164 93.2097L86.7412 89.8234L87.042 89.7983L89.9241 89.5475L94.26 89.1211Z" fill="#D35EAF"/>
<path d="M84.1347 79.7901C84.1347 79.7901 81.6033 93.4103 87.9191 93.3601C90.2499 93.3351 93.9842 91.6796 94.9115 87.1646C94.9115 87.1646 99.122 83.5275 96.0895 82.5241L94.8363 79.2131L84.1347 79.7901Z" fill="#FFB1DF"/>
<path d="M87.0922 90.0241C87.6937 90.3502 88.9468 90.7766 90.0245 89.397C90.1248 89.2716 90.0245 89.096 89.8491 89.1211L87.1423 89.698C86.9919 89.7482 86.9669 89.9488 87.0922 90.0241Z" fill="white"/>
<path d="M88.7964 88.6947H87.6185L87.418 85.5593L87.9192 85.5342L88.0947 88.193H88.7964V88.6947Z" fill="#D35EAF"/>
<path d="M85.6202 86.1068C85.8131 86.0879 85.9541 85.9161 85.9352 85.723C85.9163 85.53 85.7447 85.3889 85.5518 85.4078C85.359 85.4267 85.2179 85.5985 85.2368 85.7915C85.2557 85.9845 85.4274 86.1257 85.6202 86.1068Z" fill="#D35EAF"/>
<path d="M90.255 85.7558C90.4478 85.7369 90.5889 85.5651 90.57 85.3721C90.5511 85.1791 90.3794 85.0379 90.1866 85.0568C89.9937 85.0757 89.8527 85.2475 89.8716 85.4405C89.8905 85.6336 90.0621 85.7747 90.255 85.7558Z" fill="#D35EAF"/>
<path d="M86.5352 84.5671C86.5411 84.3455 86.0186 84.152 85.3682 84.1347C84.7179 84.1175 84.1859 84.2832 84.18 84.5048C84.1742 84.7264 84.6967 84.92 85.347 84.9372C85.9974 84.9544 86.5294 84.7887 86.5352 84.5671Z" fill="#D35EAF"/>
<path d="M90.2857 84.3524C90.9211 84.2123 91.3975 83.9234 91.3499 83.7069C91.3022 83.4904 90.7486 83.4285 90.1133 83.5685C89.4779 83.7085 89.0015 83.9975 89.0491 84.214C89.0968 84.4304 89.6504 84.4924 90.2857 84.3524Z" fill="#D35EAF"/>
<path d="M96.7411 82.8252C97.2423 76.3537 91.3276 77.3319 91.3276 77.3319C81.6033 75.8269 83.3577 83.7031 83.3577 83.7031C88.5457 83.7031 92.0795 80.8687 92.0795 80.8687C92.5557 81.5208 93.107 81.9472 93.6584 82.2482L94.1847 84.3302L95.0118 83.9539C95.0118 83.9539 95.1621 83.1512 95.4378 82.9756C96.0644 82.5492 96.7411 82.8252 96.7411 82.8252Z" fill="#46105B"/>
<path d="M91.2776 107.031H155.187C162.756 107.031 168.871 113.176 168.871 120.726C168.871 128.301 162.731 134.422 155.187 134.422H91.2776C83.7088 134.422 77.5935 128.276 77.5935 120.726C77.5935 113.176 83.7088 107.031 91.2776 107.031Z" fill="white"/>
<path d="M96.6159 59.9992C95.1121 60.7266 93.4329 61.1531 91.6284 61.1531C90.25 61.1531 88.9217 60.9022 87.6936 60.4507L87.7187 60.2751L87.7939 59.1464L87.9192 57.3906L88.1698 53.9291L88.2951 52.1732H95.6384L95.864 53.9792V54.0043L96.6159 59.9992Z" fill="#FFB1DF"/>
<path d="M95.8891 53.9792C95.2124 57.4658 91.3779 59.924 87.7188 60.2752L87.7939 59.1464L88.1699 53.9291L95.8891 53.9792Z" fill="#D35EAF"/>
<path d="M86.5408 43.4944C86.5408 43.4944 82.631 57.0645 89.022 57.6414C91.4029 57.8421 95.3377 56.5377 96.7412 52.0478C96.7412 52.0478 101.378 49.088 98.3953 47.7836L97.443 43.9961L86.5408 43.4944Z" fill="#FFB1DF"/>
<path d="M96.6159 49.7904L95.438 50.2669L95.1122 47.1064C95.037 46.4543 94.3603 46.078 93.7839 46.3288C91.428 47.3823 86.3654 49.2134 85.7889 45.6014C85.0621 40.8607 93.2576 40.1333 94.6611 41.2369C94.6611 41.2369 99.448 42.2403 98.5458 47.884C98.5207 47.884 96.8666 47.6583 96.6159 49.7904Z" fill="#46105B"/>
<path d="M88.5458 54.1799C89.1223 54.5813 90.3503 55.108 91.5784 53.8288C91.7037 53.7034 91.6035 53.5027 91.428 53.5278L88.621 53.8539C88.4456 53.8789 88.3955 54.1047 88.5458 54.1799Z" fill="white"/>
<path d="M89.1975 52.9258L89.3228 49.6901L89.8241 49.7151L89.7238 52.374L90.3253 52.3489L90.3755 52.8506L89.1975 52.9258Z" fill="#D35EAF"/>
<path d="M87.1924 50.0914C87.3862 50.0914 87.5433 49.9342 87.5433 49.7402C87.5433 49.5463 87.3862 49.389 87.1924 49.389C86.9986 49.389 86.8416 49.5463 86.8416 49.7402C86.8416 49.9342 86.9986 50.0914 87.1924 50.0914Z" fill="#D35EAF"/>
<path d="M91.9292 50.0914C92.123 50.0914 92.2801 49.9342 92.2801 49.7402C92.2801 49.5463 92.123 49.389 91.9292 49.389C91.7355 49.389 91.5784 49.5463 91.5784 49.7402C91.5784 49.9342 91.7355 50.0914 91.9292 50.0914Z" fill="#D35EAF"/>
<path d="M88.1969 48.7431C88.2225 48.5369 87.7757 48.3114 87.1988 48.2394C86.6219 48.1675 86.1335 48.2763 86.1078 48.4825C86.0821 48.6887 86.5289 48.9142 87.1058 48.9862C87.6827 49.0581 88.1712 48.9493 88.1969 48.7431Z" fill="#D35EAF"/>
<path d="M92.1256 48.7559C92.7028 48.6867 93.1507 48.4633 93.126 48.257C93.1013 48.0506 92.6133 47.9395 92.0361 48.0087C91.4589 48.0779 91.011 48.3013 91.0357 48.5076C91.0604 48.7139 91.5483 48.8251 92.1256 48.7559Z" fill="#D35EAF"/>
<path d="M102.556 121.153C102.556 125.718 99.8741 129.656 95.9894 131.437C94.5358 132.114 92.9318 132.465 91.2526 132.465C90.0245 132.465 88.8215 132.264 87.6937 131.888C83.1824 130.408 79.9243 126.144 79.9243 121.127C79.9243 114.857 84.9869 109.79 91.2526 109.79C97.4931 109.815 102.556 114.882 102.556 121.153Z" fill="#CDE7F9"/>
<path d="M96.3902 131.035C94.9365 131.713 93.3325 132.064 91.6534 132.064C90.4253 132.064 89.2223 131.863 88.0945 131.487L88.1446 130.935L88.2198 129.881L88.3451 128.251L88.5707 125.065L88.696 123.435H95.4879L95.6884 125.091V125.116L96.3902 131.035Z" fill="#FFB1DF"/>
<path d="M95.6883 125.141C95.0618 128.351 91.5029 130.634 88.1445 130.96L88.2197 129.907L88.5706 125.091L95.6883 125.141Z" fill="#D35EAF"/>
<path d="M87.0419 115.458C87.0419 115.458 83.4329 128 89.3226 128.527C91.503 128.728 95.1621 127.524 96.4654 123.36C96.4654 123.36 100.726 120.626 97.9942 119.422L97.117 115.91L87.0419 115.458Z" fill="#FFB1DF"/>
<path d="M96.3401 121.253L95.2373 121.679L94.8113 117.515C94.8113 117.515 85.8389 120.801 83.859 116.863C81.879 112.925 87.3677 110.492 93.9341 113.352C93.9341 113.352 99.4228 113.577 98.0944 119.497C98.0944 119.497 96.5656 119.296 96.3401 121.253Z" fill="#46105B"/>
<path d="M88.8714 125.316C89.3977 125.667 90.5506 126.169 91.6784 124.99C91.7787 124.89 91.7035 124.689 91.5531 124.714L88.9466 125.015C88.7962 125.04 88.7712 125.241 88.8714 125.316Z" fill="white"/>
<path d="M89.4729 124.162L89.5731 121.177L90.0744 121.203L89.9992 123.636L90.5506 123.611L90.5756 124.112L89.4729 124.162Z" fill="#D35EAF"/>
<path d="M87.6434 121.554C87.8234 121.554 87.9693 121.408 87.9693 121.228C87.9693 121.048 87.8234 120.902 87.6434 120.902C87.4635 120.902 87.3176 121.048 87.3176 121.228C87.3176 121.408 87.4635 121.554 87.6434 121.554Z" fill="#D35EAF"/>
<path d="M92.0294 121.554C92.2094 121.554 92.3552 121.408 92.3552 121.228C92.3552 121.048 92.2094 120.902 92.0294 120.902C91.8495 120.902 91.7036 121.048 91.7036 121.228C91.7036 121.408 91.8495 121.554 92.0294 121.554Z" fill="#D35EAF"/>
<path d="M88.5699 120.295C88.5939 120.102 88.1791 119.892 87.6434 119.825C87.1077 119.759 86.654 119.86 86.6301 120.053C86.6061 120.245 87.0209 120.456 87.5566 120.522C88.0923 120.589 88.546 120.487 88.5699 120.295Z" fill="#D35EAF"/>
<path d="M92.2017 120.319C92.7377 120.254 93.1535 120.046 93.1304 119.853C93.1074 119.661 92.6542 119.557 92.1182 119.621C91.5822 119.685 91.1664 119.894 91.1894 120.086C91.2125 120.279 91.6657 120.383 92.2017 120.319Z" fill="#D35EAF"/>
<path d="M144.009 116.487H107.844V119.096H144.009V116.487Z" fill="#CDE7F9"/>
<path d="M160.701 122.281H107.844V124.89H160.701V122.281Z" fill="#CDE7F9"/>
<path d="M144.009 45.7018H107.844V48.3105H144.009V45.7018Z" fill="#CDE7F9"/>
<path d="M160.701 51.4961H107.844V54.1048H160.701V51.4961Z" fill="#CDE7F9"/>
<path d="M144.009 81.0944H107.844V83.703H144.009V81.0944Z" fill="#CDE7F9"/>
<path d="M160.701 86.8887H107.844V89.4973H160.701V86.8887Z" fill="#CDE7F9"/>
<path d="M174.962 163.38L173.503 163.745L174.506 167.76L175.965 167.395L174.962 163.38Z" fill="#30A9FA"/>
<path d="M170.239 166.26L169.365 167.484L172.73 169.89L173.604 168.665L170.239 166.26Z" fill="#30A9FA"/>
<path d="M171.962 171.359L167.847 171.771L167.997 173.268L172.111 172.857L171.962 171.359Z" fill="#30A9FA"/>
<path d="M324.309 173.828L294.234 176.085L292.905 166.478L291.753 158.251L291.727 158.025C291.727 158.025 284.409 162.966 281.201 153.51C280.725 152.13 279.196 147.992 279.196 147.992C279.196 147.992 277.442 148.243 276.189 146.738C276.189 146.738 277.542 142.022 276.189 136.955C275.763 135.375 275.186 132.691 276.189 130.433H308.018L324.309 173.828Z" fill="#FFB1DF"/>
<path d="M295.111 143.928L294.133 143.753C294.96 139.087 294.083 137.708 293.507 137.306C292.58 136.654 291.126 137.482 291.126 137.507L290.625 136.654C290.7 136.604 292.63 135.5 294.083 136.504C295.462 137.482 295.813 139.915 295.111 143.928ZM278.921 140.993C278.52 140.993 278.144 140.918 277.893 140.818L278.244 139.89C278.419 139.94 279.848 140.417 280.625 138.886L281.527 139.338C280.875 140.617 279.798 140.993 278.921 140.993ZM282.454 153.109L282.204 152.13L282.329 152.607L282.204 152.13C282.229 152.13 284.008 151.654 284.91 150.099L285.788 150.6C284.685 152.532 282.529 153.109 282.454 153.109Z" fill="#D35EAF"/>
<path d="M363.406 280.181H242.856C242.856 280.181 244.61 279.353 246.966 277.873C251.577 274.989 251.277 269.621 252.003 263.049C252.379 259.688 252.78 256 253.206 252.163C255.061 235.633 258.194 216.544 259.121 208.919C259.121 208.919 262.129 191.361 276.665 182.331C280.474 179.948 292.204 173.301 292.204 173.301L293.432 170.516L321.953 167.607L325.812 170.817C325.812 170.817 345.111 177.088 348.619 185.366C348.619 185.366 360.649 260.365 363.406 280.181Z" fill="#1C4E80"/>
<path d="M237.217 200.767L234.435 173.251C234.309 172.072 233.332 171.194 232.154 171.194H177.618C176.265 171.194 175.187 172.373 175.337 173.727L178.119 201.244C178.245 202.422 179.222 203.3 180.4 203.3H234.936C236.289 203.3 237.342 202.121 237.217 200.767Z" fill="#82C5F8"/>
<path d="M239.221 200.642L236.44 173.125C236.314 171.946 235.337 171.068 234.159 171.068H179.623C178.269 171.068 177.192 172.247 177.342 173.602L180.124 201.118C180.249 202.297 181.227 203.175 182.405 203.175H236.941C238.294 203.175 239.347 201.996 239.221 200.642Z" fill="#C1E1FB"/>
<path d="M235.713 199.538L233.232 175.032C233.131 173.978 232.254 173.2 231.201 173.2H185.137C183.934 173.2 182.981 174.254 183.107 175.458L185.588 199.964C185.688 201.018 186.565 201.795 187.618 201.795H233.683C234.886 201.795 235.838 200.742 235.713 199.538Z" fill="white"/>
<path d="M257.893 199.036L253.131 213.835L245.111 205.382L239.071 199.036C236.515 196.528 236.615 189.254 236.615 189.254C229.347 183.735 231.101 179.722 231.101 179.722L237.467 183.284L237.116 179.722L244.384 185.742L248.645 191.762L252.455 194.747L257.893 199.036Z" fill="#FFB1DF"/>
<path d="M257.893 199.036L253.131 213.835L245.111 205.382L252.455 194.747L257.893 199.036Z" fill="#D35EAF"/>
<path d="M265.788 229.638C264.535 229.136 246.991 216.845 246.991 216.845L253.432 194.647L275.562 207.815L265.788 229.638Z" fill="#1C4E80"/>
<path d="M289.096 111.997C289.096 111.997 277.943 110.868 270.424 118.393C265.236 123.586 264.409 137.206 279.572 134.296C280.65 134.196 281.728 133.995 282.58 133.569L286.339 141.846C286.339 141.846 287.718 131.687 295.362 134.823C297.517 135.701 297.492 141.47 296.615 144.104C296.615 144.104 300.349 146.286 304.384 146.361C310.274 146.487 314.033 143.978 314.033 143.978C314.033 143.978 318.419 100.459 289.096 111.997Z" fill="#46105B"/>
<path d="M181.832 188.613C182.584 188.491 183.077 187.672 182.933 186.783C182.79 185.894 182.065 185.272 181.313 185.393C180.562 185.515 180.069 186.334 180.212 187.223C180.355 188.112 181.08 188.734 181.832 188.613Z" fill="white"/>
<path d="M244.861 248.827L231.828 254.345L225.688 241.703L222.555 235.282C215.287 230.516 211.277 221.988 211.277 221.988C210.776 220.733 211.778 218.978 211.778 218.978C210.776 216.971 212.781 215.215 212.781 215.215C212.279 213.459 213.783 211.703 213.783 211.703L206.264 199.413C209.272 198.158 213.783 203.426 213.783 203.426L223.808 214.212C218.545 207.439 220.801 204.931 220.801 204.931L229.071 211.954C231.327 214.713 235.588 227.757 235.588 228.008L238.821 235.257L244.861 248.827Z" fill="#FFB1DF"/>
<path d="M244.861 248.827L231.828 254.345L225.688 241.703L238.821 235.257L244.861 248.827Z" fill="#D35EAF"/>
<path d="M262.404 264.88L250.023 280.181H240.851L239.698 277.873L225.562 249.579L240.851 235.031L253.232 252.188L262.404 264.88Z" fill="#1C4E80"/>
<path d="M252.881 266.159L251.878 266.134C251.878 265.984 252.329 249.955 254.535 232.573C257.492 209.145 262.054 194.471 268.069 189.028C268.244 188.878 268.62 188.501 269.071 188.05C270.675 186.495 272.053 185.165 272.58 184.839L291.828 172.724L293.156 170.617L317.617 167.582L317.742 168.585L293.758 171.57L292.58 173.476L292.479 173.527L273.131 185.717C272.655 186.018 270.85 187.749 269.773 188.802C269.297 189.254 268.921 189.63 268.745 189.806C254.785 202.423 252.906 265.507 252.881 266.159Z" fill="white"/>
<path d="M292.905 166.478L291.753 158.251C294.509 156.821 297.216 153.861 298.996 149.747C298.996 149.747 300.048 159.655 292.905 166.478Z" fill="#D35EAF"/>
<path d="M299.798 183.058C295.863 183.058 293.281 182.857 293.181 182.857L293.256 181.854C293.507 181.879 318.319 183.76 331.552 175.659L332.078 176.511C322.88 182.155 308.244 183.058 299.798 183.058ZM281.677 280.331L280.725 280.055C293.056 238.091 293.231 227.882 293.231 227.782H294.234C294.234 228.158 294.083 238.091 281.677 280.331Z" fill="white"/>
<path d="M209.172 190.157H194.66L193.207 176.461H207.718L209.172 190.157ZM195.112 189.655H208.62L207.267 176.963H193.758L195.112 189.655ZM224.585 187.347H213.056L211.903 176.461H223.432L224.585 187.347ZM213.507 186.846H224.034L222.981 176.963H212.455L213.507 186.846ZM202.655 198.158C202.129 198.158 201.628 197.958 201.177 197.606C200.65 197.18 200.299 196.528 200.199 195.826C200.099 195.123 200.224 194.396 200.575 193.819C200.951 193.242 201.502 192.841 202.129 192.74C202.781 192.64 203.407 192.816 203.959 193.267C204.485 193.693 204.836 194.346 204.936 195.048C205.061 195.75 204.911 196.478 204.56 197.055C204.184 197.632 203.633 198.033 203.006 198.133C202.881 198.158 202.756 198.158 202.655 198.158ZM202.48 193.217C202.405 193.217 202.304 193.217 202.229 193.242C201.728 193.317 201.302 193.618 201.026 194.095C200.726 194.571 200.625 195.148 200.726 195.75C200.826 196.352 201.101 196.854 201.528 197.23C201.954 197.581 202.455 197.732 202.956 197.657C203.457 197.581 203.883 197.28 204.159 196.804C204.46 196.327 204.56 195.75 204.46 195.148C204.36 194.546 204.084 194.045 203.658 193.668C203.282 193.392 202.881 193.217 202.48 193.217Z" fill="#C1E1FB"/>
<path d="M200.776 179.547H196.289V180.048H200.776V179.547Z" fill="#C1E1FB"/>
<path d="M205.538 181.603H196.565V182.105H205.538V181.603Z" fill="#C1E1FB"/>
<path d="M218.57 179.547H214.084V180.048H218.57V179.547Z" fill="#C1E1FB"/>
<path d="M222.079 181.603H214.359V182.105H222.079V181.603Z" fill="#C1E1FB"/>
<path d="M201.327 183.76H196.841V184.262H201.327V183.76Z" fill="#C1E1FB"/>
<path d="M206.089 185.717H197.117V186.219H206.089V185.717Z" fill="#C1E1FB"/>
<path d="M372.354 279.805H29.0725V280.557H372.354V279.805Z" fill="#0F0A46"/>
</svg>